<svg width="1056" height="774" viewBox="0 0 1056 774" fill="none" xmlns="http://www.w3.org/2000/svg">
<g id="server 1" clip-path="url(#clip0)">
<g id="other">
<path id="Vector" opacity="0.1" d="M344.29 490.98C379.2 477.25 434 474.45 483.88 475.55C640.56 478.98 781.99 512.35 904.32 550.1C948.61 563.77 992.21 578.5 1020.96 597.32C1079.48 635.63 1062.12 688.7 980.75 720.26C953.06 731 919.5 739.26 885.04 746.52C823.76 759.5 757.68 769.91 688.14 772.91C638.56 775.02 588.36 773.3 539.07 770.35C401.34 762.08 266.16 743.91 152.85 712.68C103.15 699.01 56.31 682.01 35.85 659.88C15.39 637.75 28.47 609.73 79.22 596.63C100.22 591.22 125.3 588.77 149.87 586.48C186.03 583.1 222.77 579.76 255.4 572.89C289.11 565.79 329.02 552.06 322.35 536.35C315.16 519.49 309.42 504.69 344.29 490.98Z" fill="#0D6EFD"/>
<path id="Vector_2" opacity="0.1" d="M503.38 30.13L499.57 251.13C499.57 251.13 637.49 251.13 754.83 289.23L757.12 65.91C757.12 65.91 568.91 20.99 503.38 30.13Z" fill="black"/>
<path id="Vector_3" d="M501.38 27.13L497.57 248.13C497.57 248.13 635.49 248.13 752.83 286.23L755.12 62.91C755.12 62.91 566.91 17.99 501.38 27.13Z" fill="#F5F5FB"/>
<path id="Vector_4" opacity="0.1" d="M444.64 29.96L448.45 250.96C448.45 250.96 310.53 250.96 193.19 289.06L190.9 65.8C190.9 65.8 379.11 20.82 444.64 29.96Z" fill="black"/>
<path id="Vector_5" d="M446.64 26.96L450.45 247.96C450.45 247.96 312.53 247.96 195.19 286.06L192.9 62.8C192.9 62.8 381.11 17.82 446.64 26.96Z" fill="#F5F5FB"/>
<path id="Vector_6" opacity="0.1" d="M790.41 97.42V316.11C790.41 316.11 835.41 310.78 929.85 427.36L938.24 208.67C938.24 208.67 839.94 102.76 790.41 97.42Z" fill="black"/>
<path id="Vector_7" d="M788.41 95.42V314.11C788.41 314.11 833.41 308.78 927.85 425.36L936.24 206.67C936.24 206.67 837.94 100.76 788.41 95.42Z" fill="#F5F5FB"/>
<path id="Vector_8" opacity="0.1" d="M160.06 103.91V322.61C160.06 322.61 115.06 317.28 20.62 433.86L12.24 215.17C12.24 215.17 110.53 109.26 160.06 103.91Z" fill="black"/>
<path id="Vector_9" d="M162.06 100.91V319.61C162.06 319.61 117.06 314.28 22.62 430.86L14.24 212.17C14.24 212.17 112.53 106.26 162.06 100.91Z" fill="#F5F5FB"/>
<path id="Vector_10" d="M668.06 469.68C668.06 477.13 620.75 520.18 513.06 520.18C405.37 520.18 347.06 478.63 347.06 471.18C347.06 463.73 407.37 482.18 515.06 482.18C622.75 482.18 668.06 462.22 668.06 469.68Z" fill="#F7F7FD"/>
<path id="Vector_11" opacity="0.1" d="M316.11 367.07C322.439 367.07 327.57 366.367 327.57 365.5C327.57 364.633 322.439 363.93 316.11 363.93C309.781 363.93 304.65 364.633 304.65 365.5C304.65 366.367 309.781 367.07 316.11 367.07Z" fill="#0D6EFD"/>
<path id="Vector_12" opacity="0.1" d="M272.22 371.52C278.549 371.52 283.68 370.817 283.68 369.95C283.68 369.083 278.549 368.38 272.22 368.38C265.891 368.38 260.76 369.083 260.76 369.95C260.76 370.817 265.891 371.52 272.22 371.52Z" fill="#0D6EFD"/>
<path id="Vector_13" opacity="0.1" d="M220.54 365.5C226.869 365.5 232 364.797 232 363.93C232 363.063 226.869 362.36 220.54 362.36C214.211 362.36 209.08 363.063 209.08 363.93C209.08 364.797 214.211 365.5 220.54 365.5Z" fill="#0D6EFD"/>
<path id="Vector_14" opacity="0.1" d="M289.79 383.74C294.286 383.74 297.93 383.239 297.93 382.62C297.93 382.001 294.286 381.5 289.79 381.5C285.294 381.5 281.65 382.001 281.65 382.62C281.65 383.239 285.294 383.74 289.79 383.74Z" fill="#0D6EFD"/>
<path id="Vector_15" opacity="0.1" d="M244.24 382.62C248.736 382.62 252.38 382.119 252.38 381.5C252.38 380.881 248.736 380.38 244.24 380.38C239.744 380.38 236.1 380.881 236.1 381.5C236.1 382.119 239.744 382.62 244.24 382.62Z" fill="#0D6EFD"/>
<path id="Vector_16" d="M271.98 369.6C271.98 369.6 288.04 316.93 269.46 295.84C255.56 280.06 239.76 281.91 232.76 283.91C230.932 284.397 229.231 285.275 227.775 286.483C226.32 287.692 225.144 289.202 224.33 290.91C221.86 296.24 222.33 304.91 239.75 314.99C268.94 331.89 270.75 355.08 270.75 355.08L271.98 369.6Z" fill="#0D6EFD"/>
<path id="Vector_17" d="M235.24 291.37C235.24 291.37 282.6 306.18 271.98 369.6" stroke="#565987" stroke-miterlimit="10"/>
<path id="Vector_18" d="M262.9 296.68C262.9 296.68 256.38 301.07 258.45 307.68" stroke="#565987" stroke-miterlimit="10"/>
<path id="Vector_19" d="M239.99 300.59C239.99 300.59 243.99 296.53 248.82 298.77" stroke="#565987" stroke-miterlimit="10"/>
<path id="Vector_20" d="M258.76 320.98C258.76 320.98 265.76 317.43 267.57 321.88" stroke="#565987" stroke-miterlimit="10"/>
<path id="Vector_21" d="M276.03 328.39C276.03 328.39 270.77 327.97 270.68 330.48" stroke="#565987" stroke-miterlimit="10"/>
<path id="Vector_22" d="M272.63 370.02C272.63 370.02 253.81 331.74 248.63 332.58C246.18 332.98 245.05 335.39 244.53 337.82C243.887 340.955 244.236 344.213 245.53 347.14C248.24 353.26 255.41 364.91 272.63 370.02Z" fill="#0D6EFD"/>
<path id="Vector_23" d="M248.76 339.84C248.76 339.84 268.51 368.48 272.33 369.74" stroke="#565987" stroke-miterlimit="10"/>
<path id="Vector_24" d="M246.97 344.31H251.58" stroke="#565987" stroke-miterlimit="10"/>
<path id="Vector_25" d="M252.49 354.79L259.71 355.1" stroke="#565987" stroke-miterlimit="10"/>
<path id="Vector_26" d="M256.89 346.41L256.1 350.17" stroke="#565987" stroke-miterlimit="10"/>
<path id="Vector_27" d="M264.57 357.86L264.43 361.28" stroke="#565987" stroke-miterlimit="10"/>
<path id="Vector_28" d="M272.07 370.02C272.07 370.02 290.88 331.74 296.07 332.58C298.53 332.98 299.66 335.39 300.17 337.82C300.809 340.955 300.459 344.212 299.17 347.14C296.46 353.26 289.29 364.91 272.07 370.02Z" fill="#0D6EFD"/>
<path id="Vector_29" d="M295.91 339.84C295.91 339.84 276.16 368.48 272.35 369.74" stroke="#565987" stroke-miterlimit="10"/>
<path id="Vector_30" d="M297.73 344.31H293.12" stroke="#565987" stroke-miterlimit="10"/>
<path id="Vector_31" d="M292.21 354.79L284.98 355.1" stroke="#565987" stroke-miterlimit="10"/>
<path id="Vector_32" d="M287.81 346.41L288.6 350.17" stroke="#565987" stroke-miterlimit="10"/>
<path id="Vector_33" d="M280.13 357.86L280.27 361.28" stroke="#565987" stroke-miterlimit="10"/>
<path id="Vector_34" d="M239.76 378.96C239.247 378.541 238.874 377.976 238.69 377.34C238.606 377.022 238.634 376.685 238.771 376.386C238.908 376.087 239.144 375.844 239.44 375.7C240.12 375.43 240.86 375.91 241.44 376.39C241.678 376.67 241.971 376.897 242.302 377.058C242.632 377.218 242.993 377.307 243.36 377.32C242.985 376.98 242.705 376.549 242.545 376.069C242.386 375.589 242.353 375.076 242.45 374.58C242.489 374.375 242.578 374.182 242.71 374.02C243.09 373.61 243.78 373.79 244.24 374.11C245.69 375.11 246.09 377.11 246.1 378.88C246.178 378.216 246.178 377.544 246.1 376.88C246.07 376.551 246.122 376.221 246.251 375.917C246.38 375.613 246.583 375.347 246.84 375.14C247.184 374.955 247.57 374.862 247.96 374.87C248.284 374.824 248.615 374.846 248.93 374.936C249.245 375.025 249.538 375.18 249.79 375.39C250.029 375.72 250.152 376.12 250.139 376.527C250.127 376.934 249.979 377.326 249.72 377.64C249.18 378.247 248.541 378.758 247.83 379.15C247.286 379.47 246.824 379.911 246.48 380.44C246.437 380.512 246.403 380.589 246.38 380.67H242.28C241.37 380.21 240.523 379.636 239.76 378.96V378.96Z" fill="#0D6EFD"/>
<path id="Vector_35" d="M311.46 363.54C310.948 363.125 310.575 362.563 310.39 361.93C310.305 361.611 310.333 361.272 310.47 360.971C310.607 360.67 310.844 360.426 311.14 360.28C311.506 360.209 311.883 360.236 312.235 360.359C312.586 360.482 312.899 360.697 313.14 360.98C313.377 361.261 313.67 361.488 314.001 361.646C314.332 361.805 314.693 361.891 315.06 361.9C314.685 361.561 314.404 361.13 314.244 360.65C314.085 360.17 314.052 359.656 314.15 359.16C314.184 358.956 314.274 358.766 314.41 358.61C314.79 358.2 315.48 358.37 315.94 358.69C317.39 359.69 317.79 361.69 317.8 363.47C317.877 362.806 317.877 362.134 317.8 361.47C317.77 361.141 317.822 360.811 317.951 360.507C318.08 360.203 318.283 359.937 318.54 359.73C318.883 359.543 319.27 359.453 319.66 359.47C319.984 359.421 320.316 359.442 320.631 359.532C320.947 359.622 321.24 359.778 321.49 359.99C321.73 360.318 321.853 360.716 321.841 361.122C321.828 361.528 321.68 361.918 321.42 362.23C320.88 362.837 320.241 363.348 319.53 363.74C318.988 364.062 318.527 364.503 318.18 365.03C318.137 365.102 318.103 365.179 318.08 365.26H313.98C313.068 364.801 312.22 364.222 311.46 363.54V363.54Z" fill="#0D6EFD"/>
<path id="Vector_36" d="M287.56 378.96C287.047 378.541 286.674 377.976 286.49 377.34C286.408 377.022 286.437 376.686 286.574 376.387C286.71 376.088 286.946 375.846 287.24 375.7C287.93 375.43 288.66 375.91 289.24 376.39C289.478 376.67 289.772 376.897 290.102 377.057C290.433 377.217 290.793 377.307 291.16 377.32C290.786 376.98 290.507 376.549 290.35 376.068C290.192 375.588 290.161 375.076 290.26 374.58C290.291 374.374 290.377 374.18 290.51 374.02C290.89 373.61 291.58 373.79 292.04 374.11C293.49 375.11 293.9 377.11 293.91 378.88C293.983 378.215 293.983 377.545 293.91 376.88C293.88 376.551 293.932 376.221 294.061 375.917C294.191 375.613 294.393 375.347 294.65 375.14C295.121 374.923 295.641 374.832 296.158 374.876C296.675 374.92 297.172 375.097 297.6 375.39C297.842 375.719 297.967 376.119 297.955 376.527C297.942 376.935 297.792 377.327 297.53 377.64C296.992 378.249 296.353 378.76 295.64 379.15C295.1 379.475 294.639 379.915 294.29 380.44C294.251 380.514 294.217 380.591 294.19 380.67H290.1C289.182 380.214 288.328 379.639 287.56 378.96V378.96Z" fill="#0D6EFD"/>
<path id="Vector_37" d="M219.76 347.8C219.76 347.8 218.23 349.8 220.47 352.8C222.71 355.8 224.57 358.39 223.82 360.28C223.82 360.28 220.43 354.65 217.68 354.57C214.93 354.49 216.76 351.18 219.76 347.8Z" fill="#0D6EFD"/>
<path id="Vector_38" opacity="0.1" d="M219.76 347.8C219.626 347.993 219.521 348.206 219.45 348.43C216.76 351.58 215.33 354.53 217.91 354.6C220.32 354.67 223.21 358.98 223.91 360.06C223.889 360.145 223.863 360.229 223.83 360.31C223.83 360.31 220.44 354.68 217.69 354.6C214.94 354.52 216.76 351.18 219.76 347.8Z" fill="black"/>
<path id="Vector_39" d="M216.94 350.35C216.94 351.06 217.02 351.63 217.12 351.63C217.22 351.63 217.29 351.06 217.29 350.35C217.29 349.64 217.2 349.98 217.1 349.98C217 349.98 216.94 349.65 216.94 350.35Z" fill="#FFD037"/>
<path id="Vector_40" d="M215.96 351.2C216.58 351.54 217.12 351.74 217.17 351.65C217.22 351.56 216.75 351.22 216.17 350.89C215.59 350.56 215.79 350.79 215.75 350.89C215.71 350.99 215.34 350.91 215.96 351.2Z" fill="#FFD037"/>
<path id="Vector_41" d="M227.9 347.8C227.9 347.8 229.44 349.8 227.19 352.8C224.94 355.8 223.1 358.39 223.85 360.28C223.85 360.28 227.23 354.65 229.99 354.57C232.75 354.49 230.93 351.18 227.9 347.8Z" fill="#0D6EFD"/>
<path id="Vector_42" opacity="0.1" d="M227.9 347.8C228.034 347.993 228.139 348.206 228.21 348.43C230.9 351.58 232.33 354.53 229.75 354.6C227.34 354.67 224.46 358.98 223.75 360.06C223.771 360.145 223.797 360.229 223.83 360.31C223.83 360.31 227.21 354.68 229.97 354.6C232.73 354.52 230.93 351.18 227.9 347.8Z" fill="black"/>
<path id="Vector_43" d="M230.76 350.35C230.76 351.06 230.69 351.63 230.59 351.63C230.49 351.63 230.41 351.06 230.41 350.35C230.41 349.64 230.51 349.98 230.61 349.98C230.71 349.98 230.76 349.65 230.76 350.35Z" fill="#FFD037"/>
<path id="Vector_44" d="M231.76 351.2C231.14 351.54 230.6 351.74 230.56 351.65C230.52 351.56 230.97 351.22 231.56 350.89C232.15 350.56 231.94 350.79 231.99 350.89C232.04 350.99 232.35 350.91 231.76 351.2Z" fill="#FFD037"/>
<path id="Vector_45" d="M230.27 360.05C230.27 360.05 225.97 359.92 224.68 359C223.39 358.08 218.08 357 217.76 358.45C217.44 359.9 211.31 365.8 216.15 365.84C220.99 365.88 227.41 365.08 228.7 364.3C229.99 363.52 230.27 360.05 230.27 360.05Z" fill="#A8A8A8"/>
<path id="Vector_46" opacity="0.2" d="M216.07 365.32C220.91 365.32 227.33 364.57 228.62 363.78C229.62 363.18 229.99 361.03 230.12 360.04H230.27C230.27 360.04 229.99 363.5 228.7 364.29C227.41 365.08 221 365.87 216.15 365.83C214.76 365.83 214.27 365.32 214.3 364.58C214.49 365.04 215.03 365.31 216.07 365.32Z" fill="black"/>
<path id="Vector_47" opacity="0.1" d="M195.17 501.52C214.345 501.52 229.89 499.223 229.89 496.39C229.89 493.557 214.345 491.26 195.17 491.26C175.995 491.26 160.45 493.557 160.45 496.39C160.45 499.223 175.995 501.52 195.17 501.52Z" fill="#0D6EFD"/>
<path id="Vector_48" opacity="0.1" d="M292.15 544C311.325 544 326.87 541.703 326.87 538.87C326.87 536.037 311.325 533.74 292.15 533.74C272.975 533.74 257.43 536.037 257.43 538.87C257.43 541.703 272.975 544 292.15 544Z" fill="#0D6EFD"/>
<path id="Vector_49" opacity="0.1" d="M149.49 592.33C168.665 592.33 184.21 590.033 184.21 587.2C184.21 584.367 168.665 582.07 149.49 582.07C130.315 582.07 114.77 584.367 114.77 587.2C114.77 590.033 130.315 592.33 149.49 592.33Z" fill="#0D6EFD"/>
<path id="Vector_50" opacity="0.1" d="M885.14 698.49C904.315 698.49 919.86 696.193 919.86 693.36C919.86 690.527 904.315 688.23 885.14 688.23C865.965 688.23 850.42 690.527 850.42 693.36C850.42 696.193 865.965 698.49 885.14 698.49Z" fill="#0D6EFD"/>
<path id="Vector_51" opacity="0.1" d="M491.09 577.89C503.787 577.89 514.08 576.739 514.08 575.32C514.08 573.901 503.787 572.75 491.09 572.75C478.393 572.75 468.1 573.901 468.1 575.32C468.1 576.739 478.393 577.89 491.09 577.89Z" fill="#0D6EFD"/>
<path id="Vector_52" opacity="0.1" d="M820.09 445.89C832.787 445.89 843.08 444.739 843.08 443.32C843.08 441.901 832.787 440.75 820.09 440.75C807.393 440.75 797.1 441.901 797.1 443.32C797.1 444.739 807.393 445.89 820.09 445.89Z" fill="#0D6EFD"/>
<path id="Vector_53" opacity="0.1" d="M641.08 640.89C653.777 640.89 664.07 639.739 664.07 638.32C664.07 636.901 653.777 635.75 641.08 635.75C628.383 635.75 618.09 636.901 618.09 638.32C618.09 639.739 628.383 640.89 641.08 640.89Z" fill="#0D6EFD"/>
<path id="Vector_54" opacity="0.1" d="M442.64 623.93C455.337 623.93 465.63 622.779 465.63 621.36C465.63 619.941 455.337 618.79 442.64 618.79C429.943 618.79 419.65 619.941 419.65 621.36C419.65 622.779 429.943 623.93 442.64 623.93Z" fill="#0D6EFD"/>
<path id="Vector_55" opacity="0.1" d="M256.67 617.26C269.367 617.26 279.66 616.109 279.66 614.69C279.66 613.271 269.367 612.12 256.67 612.12C243.973 612.12 233.68 613.271 233.68 614.69C233.68 616.109 243.973 617.26 256.67 617.26Z" fill="#0D6EFD"/>
<path id="Vector_56" opacity="0.1" d="M208.21 663.3C220.907 663.3 231.2 662.149 231.2 660.73C231.2 659.311 220.907 658.16 208.21 658.16C195.513 658.16 185.22 659.311 185.22 660.73C185.22 662.149 195.513 663.3 208.21 663.3Z" fill="#0D6EFD"/>
<g id="Group" opacity="0.1">
<path id="Vector_57" opacity="0.1" d="M508.8 307.39C592.814 307.39 660.92 276.995 660.92 239.5C660.92 202.005 592.814 171.61 508.8 171.61C424.786 171.61 356.68 202.005 356.68 239.5C356.68 276.995 424.786 307.39 508.8 307.39Z" fill="black"/>
<path id="Vector_58" opacity="0.1" d="M663.56 263.77C656.83 299.17 590.33 326.96 509.27 326.96C427.5 326.96 360.54 298.68 354.8 262.85H354.23V320.54C380.97 348.48 440.17 367.91 508.89 367.91C577.61 367.91 636.81 348.48 663.56 320.54V263.77Z" fill="black"/>
<path id="Vector_59" opacity="0.1" d="M663.56 333.97C656.83 369.36 590.33 397.16 509.27 397.16C427.5 397.16 360.54 368.88 354.8 333.04H354.23V390.74C380.97 418.68 440.17 438.1 508.89 438.1C577.61 438.1 636.81 418.68 663.56 390.74V333.97Z" fill="black"/>
<path id="Vector_60" opacity="0.1" d="M663.56 411.18C656.83 446.58 590.33 474.37 509.27 474.37C427.5 474.37 360.54 446.1 354.8 410.26H354.23V472.48C354.227 473.806 354.5 475.118 355.03 476.333C355.56 477.548 356.336 478.64 357.31 479.54C385.31 505.25 442.7 515.32 508.89 515.32C575.08 515.32 632.44 505.25 660.48 479.54C661.453 478.64 662.23 477.548 662.76 476.333C663.29 475.118 663.563 473.806 663.56 472.48V411.18Z" fill="black"/>
</g>
<path id="Vector_61" opacity="0.1" d="M733.03 581.51C764.51 581.51 790.03 576.916 790.03 571.25C790.03 565.584 764.51 560.99 733.03 560.99C701.55 560.99 676.03 565.584 676.03 571.25C676.03 576.916 701.55 581.51 733.03 581.51Z" fill="#0D6EFD"/>
<path id="Vector_62" d="M701.03 440.52C703.91 442.22 708.43 443.33 714.12 439.67L714.07 447.78C714.47 453.34 721.35 473.61 721.35 473.61L726.2 490.28C729.681 502.061 731.475 514.276 731.53 526.56C731.53 530.62 731.91 534.82 733.08 537.98C735.67 544.98 732.08 553.98 730.51 557.3C727.884 558.188 725.214 558.939 722.51 559.55C722.269 559.608 722.032 559.682 721.8 559.77V559.72C721.8 559.72 714.52 562.61 711.28 562.21C708.87 561.92 707.36 564.93 709.28 567.14C707.713 567.618 706.078 567.835 704.44 567.78C701.2 567.38 699.58 572.94 705.65 574.53C711.72 576.12 746.11 574.53 746.11 574.53C747.076 574.046 747.853 573.255 748.32 572.281C748.787 571.307 748.917 570.206 748.69 569.15L752.99 568.97C752.99 568.97 759.06 566.19 752.99 558.64L752.66 558.88L751.37 555.06V549.91C751.37 549.91 759.06 512.91 756.63 508.58C754.2 504.25 752.91 481.91 752.91 481.91L753.76 457.71C755.95 453.19 757.07 446.09 757.64 440.54C758.468 437.895 758.988 435.164 759.19 432.4C759.29 431.09 759.37 429.73 759.42 428.31C759.454 425.195 758.953 422.096 757.94 419.15C760.685 415.078 763.751 411.233 767.11 407.65C768.507 406.351 769.568 404.732 770.204 402.933C770.84 401.135 771.03 399.209 770.76 397.32L768.76 383.81L763.9 360.81C764.51 354.42 763.18 350.74 761.7 348.66C762.05 346.59 762.38 344.53 762.63 342.45C763.7 333.435 763.22 324.303 761.21 315.45C760.51 312.37 759.55 309.2 757.38 306.86C754.93 304.2 750.95 302.59 750.03 299.12C749.9 298.235 749.713 297.36 749.47 296.5C748.58 294.23 745.78 293.4 743.32 293.1C738.94 292.57 732.61 292.17 728.4 293.89C724.705 295.524 721.664 298.347 719.76 301.91C718.812 303.374 718.455 305.143 718.76 306.86C718.91 307.456 719.142 308.028 719.45 308.56C718.049 312.359 718.201 316.558 719.875 320.246C721.548 323.934 724.608 326.813 728.39 328.26C728.49 328.57 728.58 328.87 728.65 329.16C728.835 329.873 728.969 330.598 729.05 331.33C728.97 332.73 728.88 334.14 728.82 335.55L728.67 336.12C725.189 337.661 721.794 339.39 718.5 341.3C720.92 344.88 718.09 359.98 718.09 359.98C712.02 363.55 705.96 372.69 712.43 382.23C718.9 391.77 715.26 402.09 715.26 402.09L714.26 417.63L714.06 420.74H714.13L714.06 421.92H714.23V423.19C711.39 424.24 707.23 426.34 704.76 430.24C703.59 432.152 702.167 433.898 700.53 435.43C700.149 435.756 699.852 436.17 699.664 436.636C699.477 437.102 699.405 437.606 699.454 438.105C699.503 438.605 699.672 439.085 699.946 439.506C700.221 439.926 700.592 440.274 701.03 440.52V440.52ZM749.88 399.24C749.636 396.551 750.134 393.846 751.32 391.42H754.18C754.264 392.052 754.381 392.68 754.53 393.3C755.35 396.85 752.07 398.52 749.88 399.24V399.24Z" fill="url(#paint0_linear)"/>
<path id="Vector_63" d="M750.68 553.24L752.24 557.91L747.18 562.97L730.44 566.91L718.37 565.74L719.15 561.46C719.38 560.539 719.859 559.699 720.534 559.032C721.21 558.366 722.056 557.898 722.98 557.68C727.98 556.52 737.4 553.86 739.39 550.17L750.68 553.24Z" fill="#DB8B8B"/>
<path id="Vector_64" opacity="0.1" d="M750.68 553.24L752.24 557.91L747.18 562.97L730.44 566.91L718.37 565.74L719.15 561.46C719.38 560.539 719.859 559.699 720.534 559.032C721.21 558.366 722.056 557.898 722.98 557.68C727.98 556.52 737.4 553.86 739.39 550.17L750.68 553.24Z" fill="black"/>
<path id="Vector_65" d="M722.26 564.53L724.6 561.42L722.26 557.81C722.26 557.81 715.26 560.64 712.14 560.25C709.02 559.86 707.47 565.31 713.31 566.87C719.15 568.43 752.24 566.87 752.24 566.87C752.24 566.87 758.08 564.14 752.24 556.74L747.18 560.64C747.18 560.64 738.61 565.31 734.33 564.53H722.26Z" fill="#C17174"/>
<path id="Vector_66" d="M711.76 571.15L723.83 572.32L740.57 568.42L745.63 563.36L745.22 562.13L744.64 560.39L744.07 558.69L732.76 555.58C732.186 556.512 731.402 557.296 730.47 557.87C726.8 560.38 720.22 562.19 716.35 563.09C716.187 563.129 716.027 563.18 715.87 563.24C715.117 563.48 714.432 563.894 713.87 564.45C713.194 565.113 712.716 565.951 712.49 566.87L711.76 571.15Z" fill="#DB8B8B"/>
<path id="Vector_67" opacity="0.1" d="M711.76 571.15L723.83 572.32L740.57 568.42L745.63 563.36L745.22 562.13L740.57 565.7C740.57 565.7 732 570.37 727.72 569.59H715.64L717.98 566.48L715.88 563.24C715.127 563.48 714.442 563.894 713.88 564.45C713.204 565.113 712.727 565.951 712.5 566.87L711.76 571.15Z" fill="black"/>
<path id="Vector_68" d="M715.64 569.98L717.98 566.87L715.64 563.26C715.64 563.26 708.64 566.09 705.52 565.7C702.4 565.31 700.85 570.76 706.69 572.32C712.53 573.88 745.62 572.32 745.62 572.32C745.62 572.32 751.46 569.59 745.62 562.2L740.56 566.09C740.56 566.09 731.99 570.76 727.71 569.98H715.64Z" fill="#C17174"/>
<path id="Vector_69" d="M725.37 344.18C725.37 344.18 744.06 346.18 741.37 338.34C740.602 336.132 740.402 333.766 740.79 331.46C741.271 328.606 742.4 325.9 744.09 323.55L726.57 326.27C727.623 328.026 728.424 329.921 728.95 331.9C731 340.16 725.37 344.18 725.37 344.18Z" fill="#DB8B8B"/>
<path id="Vector_70" d="M757.3 432.91C757.3 432.91 756.91 449.65 753.02 457.83L752.24 481.58C752.24 481.58 753.4 503.38 755.74 507.66C758.08 511.94 750.68 548.15 750.68 548.15V554.38C750.68 554.38 738.22 559.05 734.68 553.6L738.18 507.27L736.62 443.04L757.3 432.91Z" fill="#474463"/>
<path id="Vector_71" opacity="0.1" d="M757.3 432.91C757.3 432.91 756.91 449.65 753.02 457.83L752.24 481.58C752.24 481.58 753.4 503.38 755.74 507.66C758.08 511.94 750.68 548.15 750.68 548.15V554.38C750.68 554.38 738.22 559.05 734.68 553.6L738.18 507.27L736.62 443.04L757.3 432.91Z" fill="black"/>
<path id="Vector_72" d="M765.08 379.22L767.42 385.45L769.42 398.68C769.68 400.526 769.498 402.407 768.888 404.169C768.277 405.93 767.257 407.521 765.91 408.81C761.24 413.48 755.01 423.21 755.01 423.21L747.62 401.02C747.62 401.02 755.01 399.85 753.84 394.79C752.67 389.73 753.07 380.39 753.07 380.39L765.08 379.22Z" fill="#FF748E"/>
<path id="Vector_73" opacity="0.05" d="M765.17 379.13L767.5 385.36L769.5 398.6C769.764 400.444 769.584 402.324 768.976 404.084C768.367 405.844 767.347 407.434 766 408.72C761.32 413.39 755.1 423.13 755.1 423.13L747.65 400.91C747.65 400.91 755.05 399.74 753.88 394.68C752.71 389.62 753.1 380.27 753.1 380.27L765.17 379.13Z" fill="black"/>
<path id="Vector_74" opacity="0.1" d="M730.48 557.91C735.48 565.77 743.25 561.31 744.63 560.43L744.06 558.73L732.76 555.58C732.194 556.525 731.413 557.324 730.48 557.91V557.91Z" fill="black"/>
<path id="Vector_75" d="M714.86 448.13C715.25 453.58 721.86 473.43 721.86 473.43L726.53 489.77C729.871 501.323 731.597 513.283 731.66 525.31C731.543 529.096 732.046 532.876 733.15 536.5C736.27 545.07 730.04 556.74 730.04 556.74C735.49 566.48 744.83 559.86 744.83 559.86V553.63C744.83 553.63 752.23 519.76 750.28 513.14C748.33 506.52 747.56 488.62 747.56 488.62V456.3C753.794 450.086 757.584 441.837 758.24 433.06C758.33 431.78 758.41 430.44 758.46 429.06C758.77 420.28 752.76 409.98 750.46 406.31C749.9 405.42 749.54 404.92 749.54 404.92L715.17 418.56H715.09V419.91V422.85L714.86 448.13Z" fill="#474463"/>
<path id="Vector_76" opacity="0.1" d="M726.54 326.27C727.593 328.026 728.394 329.921 728.92 331.9C730.823 332.622 732.851 332.955 734.885 332.879C736.918 332.804 738.916 332.321 740.76 331.46C741.241 328.606 742.37 325.9 744.06 323.55L726.54 326.27Z" fill="black"/>
<path id="Vector_77" d="M734.33 332.11C742.714 332.11 749.51 325.314 749.51 316.93C749.51 308.546 742.714 301.75 734.33 301.75C725.946 301.75 719.15 308.546 719.15 316.93C719.15 325.314 725.946 332.11 734.33 332.11Z" fill="#DB8B8B"/>
<path id="Vector_78" opacity="0.1" d="M714.86 422.82H715.03C731.35 426.18 751.85 409.17 751.85 409.17C751.3 408.243 750.826 407.273 750.43 406.27C749.87 405.38 749.51 404.88 749.51 404.88L715.14 418.52L715.05 419.88L714.86 422.82Z" fill="black"/>
<path id="Vector_79" d="M719.15 343.79C719.15 343.79 740.95 330.55 747.95 336L757.69 348.46C757.69 348.46 763.92 350.41 762.76 362.91L767.43 385.49L753.43 388.99C753.43 388.99 745.26 396.78 751.88 408.07C751.88 408.07 731.24 425.2 714.88 421.69L716.05 403.4C716.05 403.4 719.55 393.27 713.33 383.93C707.11 374.59 712.94 365.63 718.78 362.13C718.76 362.09 721.48 347.29 719.15 343.79Z" fill="#FF748E"/>
<path id="Vector_80" d="M717.98 423.21C717.98 423.21 709.8 424.77 705.91 431C704.785 432.872 703.413 434.584 701.83 436.09C701.475 436.413 701.2 436.815 701.028 437.264C700.856 437.712 700.791 438.195 700.838 438.673C700.886 439.151 701.045 439.612 701.302 440.017C701.559 440.423 701.908 440.763 702.32 441.01C705.41 442.87 710.44 444.01 716.81 438.78C727.76 429.83 717.98 423.21 717.98 423.21Z" fill="#DB8B8B"/>
<path id="Vector_81" opacity="0.1" d="M730.05 351.19C730.05 351.19 737.83 350.41 739.78 370.65C741.73 390.89 744.84 395.57 744.84 395.57C744.84 395.57 746.79 406.08 742.11 412.31C737.43 418.54 728.49 431.78 728.49 431.78C728.49 431.78 718.76 434.5 716.81 424.78L728.88 402.2C728.88 402.2 730.82 394.41 726.15 388.96C721.48 383.51 717.98 347.29 730.05 351.19Z" fill="black"/>
<path id="Vector_82" d="M729.27 350.02C729.27 350.02 737.05 349.24 739 369.49C740.95 389.74 744.06 394.4 744.06 394.4C744.06 394.4 746.06 404.91 741.34 411.14C736.62 417.37 727.76 430.61 727.76 430.61C727.76 430.61 718.03 433.33 716.08 423.61L728.15 401.03C728.15 401.03 730.1 393.24 725.42 387.79C720.74 382.34 717.2 346.13 729.27 350.02Z" fill="#FF748E"/>
<path id="Vector_83" opacity="0.1" d="M722.84 364.62C722.84 364.62 722.07 376.69 725.57 383.31C729.07 389.93 729.07 398.49 725.57 403.16" fill="black"/>
<path id="Vector_84" opacity="0.1" d="M720.9 349.82C720.9 349.82 724.01 346.71 732.97 346.32C741.93 345.93 745.81 343.21 745.81 343.21" fill="black"/>
<path id="Vector_85" opacity="0.1" d="M742.55 297.31C744.92 297.6 747.62 298.41 748.47 300.63C748.704 301.475 748.888 302.333 749.02 303.2C749.9 306.6 753.73 308.2 756.09 310.78C758.17 313.08 759.09 316.18 759.77 319.21C761.709 327.887 762.172 336.829 761.14 345.66C760.38 352.11 758.82 358.47 758.39 364.95C757.96 371.43 758.75 378.26 762.29 383.71C763.82 386.05 765.83 388.11 766.91 390.71C764.68 392.52 761.6 392.78 758.72 392.88C755.387 392.993 752.037 392.993 748.67 392.88C746.908 392.95 745.155 392.583 743.57 391.81C742.448 391.095 741.526 390.108 740.89 388.94C738.97 385.69 738.49 381.78 738.57 378.01C738.65 374.24 739.25 370.49 739.32 366.71C739.519 364.648 739.06 362.576 738.01 360.79C737.044 359.667 735.95 358.66 734.75 357.79C730.58 354.09 729.15 348.17 729.01 342.6C728.87 337.03 729.79 331.46 729.32 325.91C729.14 323.74 728.32 321.13 726.19 320.71C725.517 320.683 724.848 320.596 724.19 320.45C722.48 319.79 722.65 317.38 722.19 315.61C721.64 313.61 719.94 312.08 719.46 310.08C718.34 305.37 724.34 299.74 728.27 298.08C732.2 296.42 738.34 296.79 742.55 297.31Z" fill="black"/>
<path id="Vector_86" d="M742.94 296.53C745.31 296.82 748.01 297.63 748.86 299.86C749.095 300.701 749.279 301.556 749.41 302.42C750.29 305.82 754.12 307.42 756.48 310C758.56 312.3 759.48 315.4 760.16 318.43C762.099 327.117 762.559 336.07 761.52 344.91C760.77 351.36 759.21 357.72 758.78 364.21C758.35 370.7 759.14 377.51 762.68 382.96C764.21 385.31 766.22 387.36 767.3 389.96C765.07 391.78 761.99 392.03 759.11 392.13C755.777 392.237 752.427 392.237 749.06 392.13C747.299 392.204 745.546 391.84 743.96 391.07C742.838 390.352 741.916 389.361 741.28 388.19C739.36 384.94 738.88 381.03 738.96 377.26C739.04 373.49 739.64 369.74 739.71 365.97C739.71 363.91 739.59 361.73 738.4 360.05C737.436 358.925 736.342 357.918 735.14 357.05C730.97 353.35 729.54 347.43 729.4 341.86C729.26 336.29 730.18 330.72 729.71 325.17C729.53 323 728.71 320.39 726.58 319.97C725.907 319.943 725.238 319.856 724.58 319.71C722.87 319.05 723.04 316.64 722.58 314.87C722.03 312.87 720.33 311.35 719.85 309.34C718.73 304.63 724.73 299 728.66 297.34C732.59 295.68 738.76 296.01 742.94 296.53Z" fill="#464353"/>
<path id="Vector_87" d="M128.04 572.77C128.04 572.77 138.76 572.44 141.98 570.14C145.2 567.84 158.46 565.09 159.26 568.78C160.06 572.47 175.36 587.12 163.26 587.22C151.16 587.32 135.16 585.33 131.93 583.37C128.7 581.41 128.04 572.77 128.04 572.77Z" fill="#A8A8A8"/>
<path id="Vector_88" opacity="0.2" d="M163.48 585.91C151.39 586.01 135.38 584.03 132.16 582.07C129.71 580.57 128.73 575.21 128.4 572.73H128.04C128.04 572.73 128.72 581.37 131.94 583.33C135.16 585.29 151.17 587.27 163.27 587.18C166.76 587.18 167.96 585.91 167.9 584.07C167.41 585.22 166.08 585.91 163.48 585.91Z" fill="black"/>
<path id="Vector_89" d="M808.93 432.12C808.93 432.12 816.28 431.89 818.5 430.31C820.72 428.73 829.81 426.85 830.36 429.38C830.91 431.91 841.42 441.97 833.11 442.04C824.8 442.11 813.82 440.74 811.61 439.4C809.4 438.06 808.93 432.12 808.93 432.12Z" fill="#A8A8A8"/>
<path id="Vector_90" opacity="0.2" d="M833.26 441.16C824.96 441.22 813.97 439.86 811.76 438.52C810.07 437.52 809.4 433.81 809.18 432.11H808.93C808.93 432.11 809.4 438.04 811.61 439.39C813.82 440.74 824.81 442.09 833.11 442.03C835.51 442.03 836.34 441.16 836.29 439.89C835.96 440.67 835.05 441.14 833.26 441.16Z" fill="black"/>
<path id="Vector_91" opacity="0.1" d="M31.29 43.26C43.2359 43.26 52.92 33.5759 52.92 21.63C52.92 9.68408 43.2359 0 31.29 0C19.3441 0 9.65997 9.68408 9.65997 21.63C9.65997 33.5759 19.3441 43.26 31.29 43.26Z" fill="#0D6EFD"/>
<path id="Vector_92" opacity="0.1" d="M961.29 105.26C973.236 105.26 982.92 95.5759 982.92 83.63C982.92 71.6841 973.236 62 961.29 62C949.344 62 939.66 71.6841 939.66 83.63C939.66 95.5759 949.344 105.26 961.29 105.26Z" fill="#0D6EFD"/>
<path id="Vector_93" opacity="0.1" d="M16 122.18C24.8366 122.18 32 115.017 32 106.18C32 97.3434 24.8366 90.18 16 90.18C7.16344 90.18 0 97.3434 0 106.18C0 115.017 7.16344 122.18 16 122.18Z" fill="#0D6EFD"/>
<path id="Vector_94" opacity="0.1" d="M178 32.18C186.837 32.18 194 25.0165 194 16.18C194 7.34344 186.837 0.179993 178 0.179993C169.163 0.179993 162 7.34344 162 16.18C162 25.0165 169.163 32.18 178 32.18Z" fill="#0D6EFD"/>
<path id="Vector_95" opacity="0.1" d="M834 34.18C842.837 34.18 850 27.0165 850 18.18C850 9.34344 842.837 2.17999 834 2.17999C825.163 2.17999 818 9.34344 818 18.18C818 27.0165 825.163 34.18 834 34.18Z" fill="#0D6EFD"/>
<path id="Vector_96" d="M889.62 646.4C889.62 646.4 893.62 651.64 887.77 659.55C881.92 667.46 877.09 674.13 879.04 679.06C879.04 679.06 887.87 664.38 895.04 664.17C902.21 663.96 897.52 655.24 889.62 646.4Z" fill="#FC6681"/>
<path id="Vector_97" opacity="0.1" d="M889.62 646.4C889.968 646.908 890.241 647.464 890.43 648.05C897.43 656.29 901.19 663.98 894.43 664.17C888.15 664.35 880.62 675.58 878.81 678.42C878.87 678.638 878.943 678.851 879.03 679.06C879.03 679.06 887.86 664.38 895.03 664.17C902.2 663.96 897.52 655.24 889.62 646.4Z" fill="black"/>
<path id="Vector_98" d="M897.06 653.08C897.06 654.92 896.85 656.42 896.6 656.42C896.35 656.42 896.14 654.92 896.14 653.08C896.14 651.24 896.4 652.08 896.65 652.08C896.9 652.08 897.06 651.23 897.06 653.08Z" fill="#FFD037"/>
<path id="Vector_99" d="M899.62 655.28C898 656.16 896.62 656.69 896.46 656.47C896.3 656.25 897.56 655.35 899.17 654.47C900.78 653.59 900.17 654.23 900.28 654.47C900.39 654.71 901.24 654.4 899.62 655.28Z" fill="#FFD037"/>
<path id="Vector_100" d="M868.46 646.4C868.46 646.4 864.46 651.64 870.31 659.55C876.16 667.46 880.99 674.13 879.04 679.06C879.04 679.06 870.2 664.38 863.04 664.17C855.88 663.96 860.55 655.24 868.46 646.4Z" fill="#FC6681"/>
<path id="Vector_101" opacity="0.1" d="M868.46 646.4C868.111 646.909 867.835 647.464 867.64 648.05C860.64 656.29 856.89 663.98 863.64 664.17C869.92 664.35 877.46 675.58 879.26 678.42C879.2 678.63 879.13 678.85 879.05 679.06C879.05 679.06 870.21 664.38 863.05 664.17C855.89 663.96 860.55 655.24 868.46 646.4Z" fill="black"/>
<path id="Vector_102" d="M861.01 653.08C861.01 654.92 861.22 656.42 861.48 656.42C861.74 656.42 861.94 654.92 861.94 653.08C861.94 651.24 861.68 652.08 861.42 652.08C861.16 652.08 861.01 651.23 861.01 653.08Z" fill="#FFD037"/>
<path id="Vector_103" d="M858.46 655.28C860.08 656.16 861.46 656.69 861.61 656.47C861.76 656.25 860.52 655.35 858.9 654.47C857.28 653.59 857.9 654.23 857.8 654.47C857.7 654.71 856.84 654.4 858.46 655.28Z" fill="#FFD037"/>
<path id="Vector_104" d="M862.29 678.38C862.29 678.38 873.49 678.03 876.86 675.63C880.23 673.23 894.09 670.36 894.93 674.21C895.77 678.06 911.75 693.38 899.11 693.48C886.47 693.58 869.73 691.48 866.37 689.48C863.01 687.48 862.29 678.38 862.29 678.38Z" fill="#A8A8A8"/>
<path id="Vector_105" opacity="0.2" d="M899.34 692.14C886.69 692.24 869.96 690.14 866.59 688.14C864.03 686.58 863 680.97 862.66 678.38H862.29C862.29 678.38 863 687.38 866.37 689.46C869.74 691.54 886.47 693.58 899.11 693.46C902.76 693.46 904.02 692.13 903.95 690.21C903.45 691.39 902.05 692.12 899.34 692.14Z" fill="black"/>
</g>
<g id="db">
<path id="Vector_106" d="M508.8 303.39C592.814 303.39 660.92 272.995 660.92 235.5C660.92 198.005 592.814 167.61 508.8 167.61C424.786 167.61 356.68 198.005 356.68 235.5C356.68 272.995 424.786 303.39 508.8 303.39Z" fill="#0D6EFD"/>
<path id="Vector_107" d="M663.56 259.77C656.83 295.17 590.33 322.96 509.27 322.96C427.5 322.96 360.54 294.68 354.8 258.85H354.23V316.54C380.97 344.48 440.17 363.91 508.89 363.91C577.61 363.91 636.81 344.48 663.56 316.54V259.77Z" fill="#0D6EFD"/>
<path id="Vector_108" d="M663.56 329.97C656.83 365.36 590.33 393.16 509.27 393.16C427.5 393.16 360.54 364.88 354.8 329.04H354.23V386.74C380.97 414.68 440.17 434.1 508.89 434.1C577.61 434.1 636.81 414.68 663.56 386.74V329.97Z" fill="#0D6EFD"/>
<path id="Vector_109" d="M663.56 407.18C656.83 442.58 590.33 470.37 509.27 470.37C427.5 470.37 360.54 442.1 354.8 406.26H354.23V468.48C354.227 469.806 354.5 471.118 355.03 472.333C355.56 473.548 356.336 474.64 357.31 475.54C385.31 501.25 442.7 511.32 508.89 511.32C575.08 511.32 632.44 501.25 660.48 475.54C661.453 474.64 662.23 473.548 662.76 472.333C663.29 471.118 663.563 469.806 663.56 468.48V407.18Z" fill="#0D6EFD"/>
</g>
<g id="approve">
<path id="Vector_110" opacity="0.7" d="M316.45 125.97C312.297 125.97 308.236 127.202 304.783 129.509C301.33 131.817 298.638 135.096 297.049 138.934C295.459 142.771 295.043 146.993 295.854 151.067C296.664 155.14 298.664 158.882 301.601 161.819C304.538 164.756 308.28 166.756 312.353 167.566C316.427 168.377 320.649 167.961 324.486 166.371C328.324 164.782 331.603 162.09 333.911 158.637C336.218 155.184 337.45 151.123 337.45 146.97C337.45 141.4 335.238 136.059 331.299 132.121C327.361 128.182 322.02 125.97 316.45 125.97V125.97ZM316.45 130.04C319.812 130.04 323.099 131.037 325.895 132.905C328.69 134.773 330.869 137.428 332.156 140.534C333.443 143.641 333.779 147.059 333.123 150.357C332.467 153.654 330.848 156.683 328.471 159.061C326.093 161.438 323.064 163.057 319.767 163.713C316.469 164.369 313.051 164.033 309.944 162.746C306.838 161.459 304.183 159.28 302.315 156.485C300.447 153.689 299.45 150.402 299.45 147.04C299.45 142.531 301.241 138.207 304.429 135.019C307.617 131.831 311.941 130.04 316.45 130.04ZM328.34 141.09L326.43 139.16C326.337 139.063 326.225 138.986 326.101 138.934C325.977 138.881 325.844 138.854 325.71 138.854C325.576 138.854 325.443 138.881 325.319 138.934C325.195 138.986 325.083 139.063 324.99 139.16L312.99 151.05L307.93 145.91C307.837 145.813 307.725 145.736 307.601 145.684C307.477 145.631 307.344 145.604 307.21 145.604C307.076 145.604 306.943 145.631 306.819 145.684C306.695 145.736 306.583 145.813 306.49 145.91L304.57 147.82C304.473 147.913 304.396 148.025 304.344 148.149C304.291 148.273 304.264 148.406 304.264 148.54C304.264 148.674 304.291 148.807 304.344 148.931C304.396 149.055 304.473 149.167 304.57 149.26L312.27 157.02C312.363 157.117 312.475 157.194 312.599 157.246C312.723 157.299 312.856 157.326 312.99 157.326C313.124 157.326 313.257 157.299 313.381 157.246C313.505 157.194 313.617 157.117 313.71 157.02L328.34 142.5C328.437 142.407 328.514 142.295 328.566 142.171C328.619 142.047 328.646 141.914 328.646 141.78C328.646 141.646 328.619 141.513 328.566 141.389C328.514 141.265 328.437 141.153 328.34 141.06V141.09Z" fill="#3ACC6C"/>
<path id="Vector_111" opacity="0.7" d="M83.97 232.29C79.9267 233.229 76.2524 235.346 73.4113 238.372C70.5702 241.398 68.6897 245.199 68.0073 249.293C67.325 253.388 67.8713 257.592 69.5774 261.377C71.2835 265.161 74.0728 268.354 77.5929 270.554C81.1131 272.754 85.2062 273.861 89.3552 273.736C93.5043 273.611 97.5232 272.259 100.904 269.85C104.285 267.442 106.877 264.086 108.352 260.206C109.826 256.326 110.118 252.096 109.19 248.05C108.572 245.357 107.429 242.813 105.827 240.563C104.224 238.313 102.193 236.401 99.8503 234.937C97.5075 233.473 94.8989 232.485 92.1739 232.031C89.4488 231.577 86.661 231.665 83.97 232.29V232.29ZM84.89 236.29C88.1676 235.525 91.5986 235.75 94.7481 236.937C97.8976 238.124 100.624 240.219 102.582 242.957C104.539 245.695 105.64 248.952 105.745 252.316C105.85 255.68 104.954 259 103.17 261.854C101.387 264.708 98.7958 266.969 95.7263 268.349C92.6567 269.73 89.2464 270.168 85.9275 269.609C82.6087 269.049 79.5305 267.517 77.0831 265.207C74.6358 262.896 72.9293 259.911 72.18 256.63C71.1793 252.248 71.9547 247.648 74.3366 243.836C76.7184 240.025 80.5129 237.311 84.89 236.29V236.29ZM98.96 244.39L96.66 242.91C96.5477 242.837 96.4218 242.787 96.29 242.764C96.1581 242.74 96.0228 242.744 95.8923 242.774C95.7617 242.803 95.6384 242.859 95.5298 242.938C95.4212 243.016 95.3294 243.115 95.26 243.23L86.26 257.51L80.17 253.66C80.0577 253.587 79.9318 253.537 79.8 253.514C79.6681 253.49 79.5328 253.494 79.4022 253.524C79.2717 253.553 79.1484 253.609 79.0398 253.688C78.9312 253.766 78.8394 253.865 78.77 253.98L77.32 256.28C77.247 256.392 77.1973 256.518 77.1739 256.65C77.1505 256.782 77.1538 256.917 77.1836 257.048C77.2135 257.178 77.2692 257.302 77.3476 257.41C77.426 257.519 77.5255 257.611 77.64 257.68L86.88 263.51C86.9927 263.585 87.1193 263.636 87.2522 263.66C87.3851 263.684 87.5216 263.681 87.6534 263.651C87.7852 263.622 87.9095 263.565 88.0189 263.486C88.1284 263.407 88.2206 263.306 88.29 263.19L99.29 245.76C99.3634 245.648 99.4137 245.523 99.4379 245.392C99.462 245.26 99.4596 245.125 99.4307 244.995C99.4018 244.864 99.347 244.741 99.2696 244.632C99.1922 244.523 99.0937 244.43 98.98 244.36L98.96 244.39Z" fill="#3ACC6C"/>
<path id="Vector_112" opacity="0.7" d="M622.52 129.01C618.367 129.01 614.306 130.242 610.853 132.549C607.4 134.857 604.708 138.136 603.119 141.974C601.529 145.811 601.113 150.033 601.924 154.107C602.734 158.181 604.734 161.922 607.671 164.859C610.608 167.796 614.35 169.796 618.423 170.606C622.497 171.417 626.719 171.001 630.556 169.411C634.394 167.822 637.673 165.13 639.981 161.677C642.288 158.224 643.52 154.163 643.52 150.01C643.52 144.44 641.308 139.099 637.369 135.161C633.431 131.223 628.09 129.01 622.52 129.01ZM622.52 133.08C625.882 133.08 629.169 134.077 631.965 135.945C634.76 137.813 636.939 140.468 638.226 143.574C639.513 146.681 639.849 150.099 639.193 153.397C638.537 156.694 636.918 159.723 634.541 162.101C632.163 164.478 629.134 166.097 625.837 166.753C622.539 167.409 619.121 167.073 616.014 165.786C612.908 164.499 610.253 162.32 608.385 159.525C606.517 156.729 605.52 153.442 605.52 150.08C605.52 145.571 607.311 141.247 610.499 138.059C613.687 134.871 618.011 133.08 622.52 133.08ZM634.41 144.13L632.5 142.2C632.407 142.103 632.295 142.026 632.171 141.974C632.048 141.921 631.914 141.894 631.78 141.894C631.646 141.894 631.513 141.921 631.389 141.974C631.265 142.026 631.153 142.103 631.06 142.2L619.06 154.09L613.99 148.98C613.897 148.883 613.785 148.806 613.661 148.754C613.538 148.701 613.404 148.674 613.27 148.674C613.136 148.674 613.003 148.701 612.879 148.754C612.755 148.806 612.643 148.883 612.55 148.98L610.64 150.91C610.543 151.003 610.466 151.115 610.414 151.239C610.361 151.363 610.334 151.496 610.334 151.63C610.334 151.764 610.361 151.897 610.414 152.021C610.466 152.145 610.543 152.257 610.64 152.35L618.34 160.11C618.433 160.207 618.545 160.284 618.669 160.336C618.793 160.389 618.926 160.416 619.06 160.416C619.194 160.416 619.327 160.389 619.451 160.336C619.575 160.284 619.687 160.207 619.78 160.11L634.41 145.59C634.507 145.497 634.584 145.385 634.636 145.261C634.689 145.137 634.716 145.004 634.716 144.87C634.716 144.736 634.689 144.603 634.636 144.479C634.584 144.355 634.507 144.243 634.41 144.15V144.13Z" fill="#3ACC6C"/>
<path id="Vector_113" opacity="0.7" d="M863.45 232.72C859.31 232.399 855.168 233.312 851.547 235.344C847.926 237.376 844.989 240.436 843.107 244.137C841.225 247.838 840.482 252.014 840.972 256.138C841.463 260.261 843.164 264.146 845.862 267.302C848.56 270.458 852.133 272.744 856.13 273.87C860.127 274.996 864.367 274.912 868.316 273.629C872.265 272.345 875.745 269.92 878.316 266.659C880.887 263.399 882.433 259.449 882.76 255.31C882.977 252.558 882.65 249.791 881.797 247.166C880.944 244.541 879.581 242.11 877.788 240.012C875.995 237.914 873.805 236.19 871.345 234.939C868.885 233.688 866.202 232.934 863.45 232.72V232.72ZM863.13 236.77C866.486 237.022 869.692 238.265 872.341 240.341C874.99 242.417 876.964 245.232 878.012 248.43C879.059 251.629 879.134 255.066 878.226 258.307C877.318 261.548 875.469 264.447 872.913 266.636C870.356 268.825 867.207 270.205 863.865 270.603C860.523 271.001 857.138 270.398 854.139 268.87C851.14 267.342 848.662 264.959 847.019 262.021C845.376 259.084 844.642 255.725 844.91 252.37C845.081 250.149 845.687 247.983 846.696 245.997C847.704 244.01 849.094 242.242 850.786 240.793C852.478 239.344 854.44 238.243 856.558 237.553C858.676 236.863 860.909 236.597 863.13 236.77ZM874.13 248.71L872.37 246.64C872.285 246.537 872.18 246.451 872.062 246.389C871.943 246.327 871.814 246.289 871.68 246.278C871.547 246.266 871.413 246.282 871.286 246.324C871.158 246.365 871.041 246.432 870.94 246.52L858.07 257.45L853.41 251.96C853.325 251.855 853.22 251.768 853.1 251.705C852.981 251.642 852.85 251.604 852.716 251.592C852.581 251.581 852.446 251.597 852.317 251.64C852.189 251.682 852.071 251.751 851.97 251.84L849.9 253.6C849.797 253.686 849.713 253.791 849.651 253.91C849.59 254.029 849.553 254.158 849.543 254.292C849.533 254.425 849.549 254.559 849.592 254.686C849.634 254.813 849.702 254.93 849.79 255.03L856.86 263.36C856.945 263.463 857.05 263.549 857.168 263.611C857.287 263.673 857.416 263.711 857.55 263.722C857.683 263.734 857.817 263.718 857.944 263.676C858.072 263.635 858.189 263.568 858.29 263.48L874.01 250.14C874.113 250.055 874.199 249.95 874.261 249.832C874.323 249.713 874.361 249.584 874.372 249.45C874.384 249.317 874.368 249.183 874.326 249.056C874.285 248.928 874.218 248.811 874.13 248.71V248.71Z" fill="#3ACC6C"/>
</g>
</g>
<defs>
<linearGradient id="paint0_linear" x1="735.16" y1="575.24" x2="735.16" y2="292.6" gradientUnits="userSpaceOnUse">
<stop stop-color="#808080" stop-opacity="0.25"/>
<stop offset="0.54" stop-color="#808080" stop-opacity="0.12"/>
<stop offset="1" stop-color="#808080" stop-opacity="0.1"/>
</linearGradient>
<clipPath id="clip0">
<rect width="1055.52" height="773.82" fill="white"/>
</clipPath>
</defs>
</svg>
